<?xml version="1.0" encoding="UTF-8"?>
<svg id="Layer_1" data-name="Layer 1" xmlns="http://www.w3.org/2000/svg" viewBox="0 0 267.31 36.7">
  <defs>
    <style>
      .cls-1 {
        fill: #008fbc;
      }

      .cls-1, .cls-2 {
        stroke-width: 0px;
      }

      .cls-2 {
        fill: #0e0f23;
      }
    </style>
  </defs>
  <g>
    <path class="cls-2" d="m14.98,26.25c0,4.48.63,7.71.63,8.67,0,.43-.48.72-.91.82-1.25.29-3.18.48-6.41.48-3.56,0-6.07-.34-6.89-.48-.43-.1-.67-.43-.67-1.01,0-.77.53-5.15.53-8.28v-13.1c0-3.13-.43-5.68-1.25-7.13,0-1.88,1.93-3.61,7.61-3.61,1.93,0,6.65,1.11,8.28,2.5-.58,1.78-.91,4-.91,7.61v13.53Z"/>
    <path class="cls-2" d="m39.44,7.8c5.15,0,8.86,3.81,8.86,8.19v12.47c0,3.9.48,5.11.48,5.92,0,.63-.24,1.11-.63,1.25-1.35.48-3.71.58-6.31.58s-4.86-.29-5.73-.53c-.34-.1-.67-.34-.67-.92,0-.82.19-2.79.19-3.61v-11.7c0-2.07-.77-3.76-2.31-3.76-.48,0-.87.14-1.25.43v11.99c0,2.94.43,5.44.43,6.41,0,.53-.63,1.06-.91,1.16-1.3.43-3.66.53-6.02.53-1.69,0-4.14-.1-5.54-.48-.63-.19-1.01-.48-1.01-1.11,0-.77.39-1.93.39-4.04v-13.92c0-2.02-.82-3.28-1.59-4,0-1.78,3.66-3.9,6.65-3.9s5.2,1.16,6.31,3.23c1.54-2.5,4.82-4.19,8.67-4.19Z"/>
    <path class="cls-2" d="m76.67,36.22c-2.26,0-5.15-.14-6.45-.77-.34-.14-1.49-1.88-2.12-3.32-.87-1.93-2.55-5.3-3.37-9.2v2.99c0,4.53.48,7.99.48,9.01,0,.43-.43.67-.96.82-.77.19-2.6.48-5.68.48s-5.54-.24-6.31-.48c-.43-.14-.72-.43-.72-1.01,0-.82.53-4.96.53-7.71V10.69c0-3.08-1.2-5.83-1.88-6.26,0-1.93,3.47-3.71,7.51-3.71,2.02,0,6.98,1.16,8.72,2.55-.82,2.6-1.69,6.79-1.69,12.14v4.77c1.93-2.41,2.74-5.88,4.29-9.34,1.25-2.84,6.89-4.19,9.54-4.19,1.01,0,2.07.1,3.08.34-1.16,7.18-6.94,12.76-10.88,14.21,4.72,4.77,8.33,8.96,10.98,12.52,0,1.49-1.97,2.5-5.06,2.5Z"/>
  </g>
  <g>
    <path class="cls-1" d="m210.38,32.27c-.43-.14-1.15-1.78-1.15-3.81v-10.21c0-7.51-5.68-10.45-13-10.45s-14.35,3.23-14.35,8.81c0,3.47,2.07,5.2,4.67,5.2s5.59-.92,6.69-2.02c-.43-.72-.87-2.36-.87-4.05,0-2.26.58-3.42,1.78-3.42,1.3,0,2.41,3.13,2.41,9.97-4,0-7.13.72-9.97,1.69-3.03,1.01-5.92,3.03-5.92,6.94s3.85,5.78,8.67,5.78c3.95,0,7.66-1.11,8.91-3.08,1.15,1.93,2.65,3.08,6.5,3.08,1.73,0,6.02-1.11,6.02-3.61,0-.34-.15-.67-.39-.82Z"/>
    <path class="cls-1" d="m107.93,3.13c5.11,0,8.57,4.86,9.68,10.64.82,4.33,2.17,12.81,2.65,15.22.87-2.5,1.49-6.36,1.49-11.61,0-3.56-1.3-7.13-3.18-9.05-.24-.19-.38-.43-.38-.67,0-1.73,3.8-5.49,8.43-5.49,5.78,0,9.87,3.23,9.87,9.92,0,13.58-8.86,24.61-17.72,24.61-3.18,0-6.89-2.41-9.01-5.59-2.12,3.37-5.63,5.59-9.58,5.59-7.13,0-10.88-5.15-13.44-13.73-1.35-4.53-3.95-14.01-5.3-16.18,0-2.41,3.85-3.66,7.66-3.66,6.07,0,9.54,4.86,10.64,10.64.82,4.33,1.3,11.51,1.93,15.22,1.2-2.5,2.22-6.36,2.22-11.61,0-4.33-1.59-8.57-3.61-10.84,0-1.78,3.42-3.42,7.66-3.42Z"/>
    <path class="cls-1" d="m139.58,18.16c-.1-3.27-.48-6.55-1.54-7.37,0-1.4,2.26-3.08,5.92-3.08,3.95,0,7.17.67,8.86,1.54-.24.87-.58,2.94-.58,5.44v14.79c0,2.36.43,4.53.43,5.54,0,.53-.77.67-1.11.72-.96.14-2.17.48-5.63.48-3.66,0-5.78-.34-6.41-.48-.24-.05-.38-.19-.38-.43,0-.82.43-2.55.43-4.67v-12.47Zm5.68-18.16c3.71,0,6.94.72,8.67,1.93l-3.23,3.66c-.96.43-2.5.63-4.43.63-2.02,0-4.48-.24-6.98-.63,0-2.55,2.7-5.59,5.97-5.59Z"/>
    <path class="cls-1" d="m159.28,35.98c-1.83-.19-3.81-.43-3.81-2.41,0-.91.77-2.22,1.3-2.89.82-1.06,7.37-11.13,9.78-14.55-3.76,0-6.07,1.73-6.21,4.33-.34.39-1.06.67-1.83.67-1.54,0-3.42-3.56-3.42-7.61,0-3.27,2.22-5.49,3.9-5.73,1.4-.19,4.77-.48,8.28-.48,3.08,0,6.6.29,8.38.48,2.65.29,3.71,1.88,3.71,4.14,0,1.3-.34,2.7-.67,3.27-1.35,2.36-8.91,12.43-10.93,14.55,3.23-.19,5.88-1.01,6.45-4.72.67-.29,1.35-.43,1.93-.43,2.36,0,3.66,2.26,3.66,4.91,0,3.9-2.94,6.26-5.92,6.45-1.59.1-5.39.24-7.71.24-1.54,0-5.44-.1-6.89-.24Z"/>
    <path class="cls-1" d="m214.38,18.35c0-2.46-1.49-4.14-2.6-4.62-.05-.1-.1-.24-.1-.39,0-2.84,3.42-4.62,6.84-4.62,2.7,0,4.53,1.16,5.63,3.76,1.01-2.6,3.85-4.67,6.79-4.67s4.77,1.59,4.77,4.19c0,2.99-1.54,5.01-3.03,5.54-.39-.82-1.59-1.49-2.94-1.49-1.45,0-2.7,1.54-2.7,3.23v10.45c0,1.73.63,4.19.63,5.01,0,.53-.43,1.11-.77,1.2-.96.24-3.71.29-6.31.29-2.94,0-5.49-.24-6.16-.58-.24-.14-.48-.48-.48-1.06,0-.82.43-3.71.43-5.97v-10.26Z"/>
    <path class="cls-1" d="m257.82.58c5.3,0,8.28,1.73,9.49,3.23-.67,2.55-1.44,5.54-1.44,11.7v13.53c0,1.3.43,2.36,1.01,2.94.14.14.24.48.24.87,0,1.78-2.89,3.85-6.31,3.85-2.89,0-5.49-1.3-6.5-2.89-1.49,1.69-4.19,2.89-7.66,2.89-6.31,0-10.55-5.92-10.55-13.82,0-9.34,5.73-15.07,13-15.07,1.78,0,3.56.63,4.09,1.16v-1.11c0-.96-.96-2.65-2.07-3.23,0-2.26,3.42-4.05,6.69-4.05Zm-4.62,15.6c-.1-1.83-.77-2.84-1.88-2.84-1.35,0-2.55,3.52-2.55,7.61,0,8.19,1.2,9.68,3.08,9.68.67,0,1.06-.24,1.35-.67v-13.77Z"/>
  </g>
  <g>
    <polygon class="cls-2" points="195.14 23.41 196.73 26.63 200.29 27.15 197.72 29.66 198.32 33.21 195.14 31.54 191.95 33.21 192.56 29.66 189.98 27.15 193.55 26.63 195.14 23.41"/>
    <polygon class="cls-2" points="219.41 19.14 221.64 21.91 225.18 21.65 223.23 24.62 224.58 27.91 221.15 26.98 218.44 29.27 218.26 25.73 215.24 23.86 218.57 22.59 219.41 19.14"/>
    <polygon class="cls-2" points="114.98 24.96 117.37 28.1 121.1 27.86 119.1 31.16 120.57 34.87 116.94 33.77 114.11 36.3 113.87 32.32 110.66 30.18 114.14 28.81 114.98 24.96"/>
    <polygon class="cls-2" points="127.11 7.33 128.16 9.46 130.5 9.8 128.81 11.46 129.21 13.79 127.11 12.69 125.01 13.79 125.41 11.46 123.71 9.8 126.06 9.46 127.11 7.33"/>
    <polygon class="cls-2" points="162.2 25.7 163.83 27.6 166.32 27.34 165.01 29.47 166.03 31.76 163.59 31.18 161.73 32.85 161.54 30.36 159.37 29.1 161.68 28.15 162.2 25.7"/>
    <polygon class="cls-2" points="89.92 7.71 92.11 12.15 97.02 12.86 93.47 16.32 94.3 21.21 89.92 18.9 85.53 21.21 86.37 16.32 82.82 12.86 87.73 12.15 89.92 7.71"/>
    <polygon class="cls-2" points="260.01 4.57 258.96 6.7 256.62 7.04 258.31 8.69 257.91 11.03 260.01 9.93 262.11 11.03 261.71 8.69 263.41 7.04 261.06 6.7 260.01 4.57"/>
    <polygon class="cls-2" points="168 6.62 166.4 9.85 162.84 10.37 165.42 12.88 164.81 16.43 168 14.75 171.18 16.43 170.57 12.88 173.15 10.37 169.59 9.85 168 6.62"/>
    <polygon class="cls-2" points="243.29 17.56 241.06 20.32 237.52 20.06 239.46 23.03 238.12 26.32 241.55 25.39 244.26 27.69 244.43 24.14 247.45 22.27 244.13 21.01 243.29 17.56"/>
    <polygon class="cls-2" points="260.01 25.08 258.96 27.21 256.62 27.55 258.31 29.2 257.91 31.54 260.01 30.44 262.11 31.54 261.71 29.2 263.41 27.55 261.06 27.21 260.01 25.08"/>
    <polygon class="cls-2" points="146.61 22.04 144.42 26.49 139.51 27.2 143.06 30.66 142.22 35.54 146.61 33.23 151 35.54 150.16 30.66 153.71 27.2 148.8 26.49 146.61 22.04"/>
  </g>
</svg>