<?xml version="1.0" encoding="UTF-8"?>
<svg id="Layer_1" data-name="Layer 1" xmlns="http://www.w3.org/2000/svg" viewBox="0 0 158.13 22.01">
  <defs>
    <style>
      .cls-1 {
        fill: #54c6d7;
      }

      .cls-1, .cls-2 {
        stroke-width: 0px;
      }

      .cls-2 {
        fill: #fff;
      }
    </style>
  </defs>
  <path class="cls-2" d="m0,21.65V1.13h6.59v20.52H0Z"/>
  <path class="cls-2" d="m25.85,7.07c.91,1.01,1.37,2.48,1.37,4.38v10.2h-5.93v-9.48c0-.68-.17-1.22-.52-1.63-.35-.41-.84-.61-1.48-.61-.74,0-1.33.24-1.79.72-.46.48-.69,1.06-.69,1.76v9.24h-5.93V5.9h4.86l.39,2.39c.62-.83,1.43-1.5,2.43-2,1-.5,2.06-.75,3.18-.75,1.83,0,3.2.51,4.12,1.52Z"/>
  <path class="cls-2" d="m41.75,5.9h6.92l-5.81,6.35,5.96,9.39h-6.74l-3.31-5.4-2.06,2v3.4h-5.93V0h5.93v11.93l5.04-6.02Z"/>
  <path class="cls-1" d="m66.5,21.65l-2.65-12.49h-.12l-2.65,12.49h-7.25L49.02,1.13h6.86l2.36,11.63h.12l2.33-11.63h6.5l2.48,11.63h.12l2.21-11.63h6.56l-4.8,20.52h-7.25Z"/>
  <path class="cls-1" d="m81.68,4.06V.03h5.93v4.03h-5.93Zm0,17.59V5.9h5.93v15.74h-5.93Z"/>
  <path class="cls-1" d="m98.61,17.62h6.95v4.03h-15.36v-1.94l6.62-9.78h-6.26v-4.03h14.73v1.85l-6.68,9.87Z"/>
  <path class="cls-1" d="m121.63,6.75c1.51.81,2.27,2.11,2.27,3.92v6.14c0,.34.08.62.24.83.16.22.4.33.72.33h1.07v3.43c-.06.04-.21.1-.46.19-.25.09-.6.18-1.06.27-.46.09-.98.13-1.58.13-1.15,0-2.1-.17-2.85-.52s-1.26-.83-1.54-1.45c-.76.6-1.6,1.07-2.53,1.43-.93.36-2.03.54-3.28.54-3.7,0-5.55-1.47-5.55-4.41,0-1.53.41-2.7,1.24-3.5.82-.81,2.01-1.36,3.56-1.66,1.55-.3,3.58-.45,6.08-.45v-.78c0-.62-.21-1.08-.64-1.4-.43-.32-.98-.48-1.66-.48-.62,0-1.15.11-1.6.33s-.67.57-.67,1.04v.12h-5.84c-.02-.1-.03-.24-.03-.42,0-1.49.71-2.67,2.13-3.55,1.42-.87,3.45-1.31,6.1-1.31,2.4,0,4.36.4,5.87,1.21Zm-7.41,8.59c-.81.37-1.21.86-1.21,1.48,0,.99.68,1.49,2.03,1.49.78,0,1.46-.21,2.04-.63s.88-.93.88-1.55v-1.34c-1.69,0-2.94.18-3.74.55Z"/>
  <path class="cls-1" d="m138.66,5.68c.36.11.54.17.54.19v4.98h-1.91c-1.23,0-2.12.32-2.67.95s-.82,1.58-.82,2.83v7.01h-5.93V5.9h4.86l.39,2.39c.36-.91.92-1.6,1.7-2.07.78-.47,1.65-.7,2.62-.7.46,0,.86.05,1.22.16Z"/>
  <path class="cls-1" d="m153.3,21.65l-.51-2.24c-1.15,1.73-2.82,2.59-5.01,2.59s-3.77-.7-4.92-2.09c-1.15-1.39-1.73-3.45-1.73-6.17s.58-4.75,1.73-6.13c1.15-1.38,2.79-2.07,4.92-2.07,1.81,0,3.28.61,4.41,1.82V.03h5.93v21.62h-4.83Zm-6.23-8.65v1.58c0,2.03.85,3.04,2.56,3.04.87,0,1.53-.31,1.97-.92.44-.62.66-1.42.66-2.42v-.98c0-.99-.22-1.8-.66-2.43-.44-.63-1.09-.94-1.97-.94-1.71,0-2.56,1.02-2.56,3.07Z"/>
</svg>