<?xml version="1.0" encoding="UTF-8"?>
<svg id="Layer_1" data-name="Layer 1" xmlns="http://www.w3.org/2000/svg" viewBox="0 0 151.22 67">
  <defs>
    <style>
      .cls-1 {
        fill: #0e1c1e;
      }

      .cls-1, .cls-2, .cls-3 {
        stroke-width: 0px;
      }

      .cls-2 {
        fill: #54c6d7;
      }

      .cls-3 {
        fill: #fff;
      }
    </style>
  </defs>
  <g>
    <path class="cls-1" d="M67.14,22.16c-.52-.05-1.02-.25-1.44-.58-.46-.09-.92-.07-1.39.09-.67.23-1.3.73-1.86,1.19-1.14.93-2.44,2.18-4.05,1.71-.31-.09-.57-.46-.45-.79.46-1.22,1.38-2.15,2.24-3.11.42-.47.92-1.02,1.21-1.63,0,0-.02-.01-.03-.02-.51-.52-.75-1.26-.72-1.98.02-.51.14-1.26.63-1.54-.09-.16-.24-.29-.48-.33-2.42-.44-1.86-3.41-1.29-5.13.22-.65-.6-1.28-1.18-.9-1.16.76-2.36,1.53-3.62,2.14-.91-.4-1.55-1.27-1.72-2.37-.08-.54-.77-.69-1.18-.48-.08.04-.15.07-.22.11-.37-.36-.78-.69-1.23-.98-.1-1.04-.11-2.09,0-3.15.1-.93-1.32-1.04-1.57-.21-.25.8-.57,1.55-.96,2.26-.15-.04-.29-.08-.44-.11-.11-.27-.22-.54-.34-.8-.28-.67-1.02-.76-1.46-.19-.54.7-1.26,1.18-2.07,1.45-1.12-.22-2.25-.26-3.41-.17-.07-.02-.15-.05-.22-.07-.82-.48-1.43-1.23-2.28-1.77-1.69-1.07-3.51-.08-4.53,1.46-.13.19-.23.38-.31.56-.15-.09-.29-.19-.45-.27-.03-.01-.06-.02-.08-.03-.34-.56-.85-1.03-1.36-1.41-.33-.25-.83-.56-1.33-.71-.06.55-.21,1.09-.39,1.6-.56,1.55-1.46,3.08-2.7,4.19-1.07.97-2.61,1.64-3.94.74,0,0,0,0-.01-.01-.06-.02-.12-.03-.18-.05-.43-.16-.74-.46-.99-.8,0,0-.01,0-.02,0-.02-.04-.05-.07-.07-.11-.04-.06-.08-.11-.11-.17-.23-.25-.59-.39-.97-.22-2.05.89-4.08,1.73-5.61,3.33-.59-.5-1.19-1-1.78-1.5-.54-.46-1.66-.04-1.34.78.21.54.3,1.11.28,1.69-.03.8-.07,1.38-.9.82-.55-.37-1.43.26-1.18.9.69,1.74,1.38,3.47,2.07,5.21-.41-.07-.82-.13-1.22-.2-.69-.11-1.25.52-.9,1.18.16.3.31.6.47.89.02.01.04.02.06.04.57.49,1.29.85,2.02,1.21.61-.21,1.25-.33,1.9-.36.01,0,.02,0,.03,0,.12-.12.29-.2.47-.21.21-.02.43,0,.65.02.02,0,.05,0,.07,0,.35.06.69.17.97.38.86.64,1.07,1.71.9,2.72-.08.46-.26.92-.5,1.32-.07.11-.15.21-.24.3-.02.2-.13.37-.29.48-.14.23-.42.37-.71.29-2.3-.67-4.43-1.98-6.85-1.91-.1.14-.17.3-.17.46.01,1.58.32,3.08.7,4.56-.42.32-.86.61-1.33.86-1.44.75-3.05,1.08-4.67.98-.62-.04-.89.62-.72,1.11,0,0,0,0,.02,0,1.07-.03,2.2.05,3.17.53,1.35.66,1.76,2.08,1.49,3.47,0,0,0,0,0,0,.03,0,.06.03.09.03-.25.93-.53,1.86-.9,2.76-.32.78.67,1.19,1.24.83.14-.16.28-.32.4-.49.11-.17.26-.4.44-.66.62-1.03,1.09-2.16,1.94-3.04.39-.4,1.09-.1,1.09.45,0,2.45.09,5.2-.95,7.42,0,.01,0,.02,0,.03-.02.02-.03.05-.06.06-.25.51-.55,1-.94,1.44-.03.07-.07.12-.09.2-.16.49.27,1.02.77,1.01,3.14-.04,5.28,2.28,4.75,5.43-.1.6.35,1.06.89.99-.21.59-.42,1.19-.58,1.79-.26.98,0,2.35,1.25,2.37.99.01,1.21-.78,1.56-1.47.37-1.23,1.32-2.29,2.29-3.1,1.25-1.04,2.73-1.94,4.3-2.37.1-.03.18-.03.27-.02.01,0,.02,0,.03,0,.07.01.13.04.18.07.01,0,.03.02.04.03.05.04.09.08.13.13,0,.01.02.02.02.03.12.19.16.44.07.65-.02.04-.04.07-.07.1-.02.02-.03.05-.05.07-.67.69-.92,1.63-.88,2.57.02.03.04.07.07.1.12.12.3.19.44.21.62.08,1.27-.16,1.83-.43.58-.29,1.17.29.88.88-.3.6-.59,1.26-.78,1.93.33.19.62.42.92.64,0,0,0,0,0,0,.48-.33,1.1-.66,1.71-.6.5.05.93.3,1.18.74.16.28.22.6.25.92.16.11.26.28.26.51,0,.56-.06,1.13-.21,1.68.22-.03.42-.13.55-.37.52-1.01,1.04-2.16,1.2-3.31.22-.13.42-.28.63-.41.03-.03.05-.07.09-.11.92-.9,2.44-1.24,3.68-.92.09.02.16.06.24.09.16-.05.33-.1.49-.15.01.13.03.26.05.39,1.07.63,1.59,1.84,1.74,3.09.51.21,1.13.14,1.86-.29-.11-.2-.18-.44-.16-.66.02-.23.08-.4.18-.61.09-.18.21-.33.33-.49.1-.13.29-.18.45-.19.12,0,.22.04.32.1-.03-.31-.02-.63.05-.95.06-.28.17-.54.3-.79,0-.02,0-.05,0-.07,0-.02,0-.04.01-.05.01-.04.03-.08.04-.12,0-.02,0-.03.02-.05.06-.11.13-.22.21-.33,0,0,0,0,0,0,0,0,.01-.01.03-.03.04-.05.09-.1.13-.15.03-.03.06-.06.09-.08.38-.72,1.13-1.25,1.9-1.45.87-.22,1.76-.05,2.56.3.51.22.99.51,1.45.82.03-.01.07-.02.1-.04.23.09.46.24.66.45.23.24.51.28.75.2.09.21.24.38.43.46.67-.64,1.4-1.22,2.06-1.87.37-.37.89-.15,1.07.28.51,1.24.85,2.53,1.11,3.85.11.02.23.03.34,0,.34.59.67,1.18,1.01,1.78.32.56,1.34.51,1.46-.19.26-1.48,1.08-2.79,2.45-3.49.9-.46,2.21-.34,2.88-1.18.6-.75.28-1.5-.07-2.28-.25-.57-.42-1.14-.54-1.7,0-.02,0-.04.01-.06-.17-.26-.37-.51-.6-.75-.17-.17-.36-.33-.53-.49-.02-.02-.05-.03-.07-.04-.3-.13-.61-.25-.94-.34-.15-.04-.25-.11-.32-.2-.15.04-.31.02-.44-.07-1.54-1.08-3.34-1.72-4.8-2.94-.32-.27-.22-.66.04-.89,0-.1.02-.19.07-.29.04-.08.08-.17.13-.25.05-.35.2-.7.42-1,.84-1.18,2.35-1.19,3.43-.44.76.12,1.5.56,2.14,1.13.57-.31,1.16-.6,1.75-.89.71-1.01,1.53-1.93,2.53-2.68.38-.29.59-.88.16-1.26-.82-.71-1.28-1.54-1.81-2.38-.04-.18-.07-.37-.09-.55.65-.78,1.3-1.56,1.94-2.35.66-.79-.34-1.81-1.13-1.13-.24.2-.48.23-.71.16.28-1.65.85-3.31,1.4-4.96.18-.53-.29-.97-.77-1.01-.08,0-.15-.03-.22-.04.32-.49.62-.98.92-1.48.21-1.46,1.27-2.9,2.43-3.92.03-.06.06-.12.08-.18-.32-.21-.59-.48-.83-.77ZM13.22,14.35c.02-.15.04-.31.05-.47.09.07.17.15.26.22-.11.08-.21.16-.31.24Z"/>
    <path class="cls-1" d="M56.69,18.55c-.03-.06-.06-.12-.1-.18.04.06.07.12.11.18,0,0,0,0,0,0Z"/>
    <path class="cls-1" d="M58.6,15.93s0-.06,0-.09c.04.04.07.07.11.11-.04,0-.08-.02-.12-.02Z"/>
    <path class="cls-1" d="M13.29,16.96c.02-.09.05-.18.09-.27-.03.09-.05.18-.09.27Z"/>
    <path class="cls-1" d="M8.28,36.6s.07,0,.11,0c-.02.03-.03.05-.05.08-.15-.02-.31,0-.47.1,0-.03-.02-.05-.03-.08.15-.03.29-.07.44-.11Z"/>
    <path class="cls-1" d="M63.42,41.18s.03.04.04.07c-.01,0-.02.02-.04.02,0-.03,0-.06,0-.09Z"/>
    <path class="cls-1" d="M46.25,7.72s-.04-.02-.06-.03c.01,0,.03,0,.04,0,0,0,0,.02.01.03Z"/>
    <path class="cls-1" d="M16.52,53.17c-.02.06-.05.12-.07.19,0-.13-.01-.25-.02-.37.03.06.07.13.1.19Z"/>
    <path class="cls-1" d="M57.19,58.57c.08,0,.15-.03.22-.05-.04.07-.09.15-.13.22-.03-.06-.06-.11-.1-.17Z"/>
    <path class="cls-1" d="M10.18,28.24c-.06.13-.12.25-.16.38-.01-.13-.03-.26-.04-.39.07,0,.13,0,.2,0Z"/>
    <path class="cls-1" d="M17.05,56.46c.03-.07.05-.14.07-.2.03-.09.06-.18.1-.27.05.06.11.11.16.16-.12.1-.23.2-.33.31Z"/>
    <path class="cls-1" d="M39.87,59.48c.06.01.11.01.17.01,0,.02.02.04.02.06-.07-.01-.14-.04-.2-.07Z"/>
    <path class="cls-1" d="M61.88,55.21s-.09-.08-.13-.13c.08-.13.16-.26.24-.39.04.25.02.4-.1.52Z"/>
    <path class="cls-1" d="M47.37,61.19c-.22-.35-.72-.53-1.1-.29-.1.07-.19.16-.25.27-.29.06-.53.25-.62.56-.5,1.76-.02,3.69,1.2,5.05.19.21.52.28.78.21.29-.08.46-.29.56-.56.63-1.7.4-3.7-.57-5.23Z"/>
    <path class="cls-1" d="M68.15,47.6c.36-.06.72-.14,1.07-.24.22-.07.42-.17.64-.27.03-.03.07-.04.11-.07.75-.7,1.11-1.99.48-2.88-.26-.37-.68-.5-1.1-.29-1.54.78-2.84,1.95-3.83,3.36-.18.26-.13.64.06.89.82-.29,1.73-.36,2.58-.51Z"/>
    <path class="cls-1" d="M68.95,45.77s0,0,0,0c0-.01.02-.03.03-.04-.01.01-.01.02-.02.03Z"/>
    <path class="cls-1" d="M68.8,45.91s-.02.01-.02.02h0s.02-.01.02-.02Z"/>
    <path class="cls-1" d="M56.65,1.18c-.28.16-.54.35-.79.56-.03.05-.05.09-.09.13-1.4,1.43-1.81,3.54-1.26,5.44,0,0,.01-.01.02-.02.71-.66,1.42-1.33,2.2-1.91.15-.11.32-.22.49-.32.45-.99.68-2.09.63-3.19-.03-.61-.66-1-1.21-.69Z"/>
    <path class="cls-1" d="M67.8,15.41c-.06-.01-.12-.02-.17-.03-.05.03-.1.05-.15.06-.58.1-1.16.19-1.73.32-.06.02-.12.05-.06.02-.06.03-.12.06-.18.09-.12.06-.24.13-.36.19-.22.13-.48.31-.63.43-.14.11-.3.17-.46.17.27.43.42.91.46,1.41,1.34,0,2.61-.48,3.65-1.32.46-.37.2-1.22-.35-1.34Z"/>
    <path class="cls-1" d="M65.29,17.14s0,0,0,0c0,0,0,0,0,.01,0,0,0,0,0,0Z"/>
    <polygon class="cls-1" points="65.29 17.13 65.29 17.12 65.3 17.12 65.3 17.12 65.29 17.13"/>
    <path class="cls-1" d="M65.31,17.11s0,0,0-.01c0,0,0,0,0,0,0,0,0,0,0,0,0,0,0,.01-.01.02Z"/>
    <path class="cls-1" d="M22.8,3.2s.02-.02.03-.03c0,0,0,0,0-.01.03-.05.07-.1.1-.15.04-.07.08-.14.11-.22,0-.02.04-.08.05-.11.02-.06.04-.11.05-.17.03-.1.05-.2.07-.3,0,0,0,0,0-.01,0-.01,0-.02,0-.04,0-.04,0-.09,0-.13,0-.12,0-.24,0-.35,0-.04,0-.08-.01-.13,0-.02,0-.04,0-.05-.02-.11-.05-.21-.08-.32-.01-.05-.03-.1-.05-.14,0-.02-.01-.03-.02-.05,0,0,0,0,0,0-.05-.09-.09-.18-.14-.26-.03-.05-.06-.09-.09-.13-.01-.02-.03-.03-.04-.05-.07-.07-.14-.14-.21-.21,0,0,0,0,0,0-.01,0-.02-.01-.03-.02-.04-.02-.07-.05-.11-.07-.05-.03-.1-.05-.15-.08,0,0,0,0-.01,0-.01,0-.03-.01-.04-.02-.1-.04-.21-.06-.31-.08-.02,0-.02,0-.03,0-.02,0-.03,0-.05,0-.07,0-.14,0-.2,0-.06,0-.11-.02-.16-.03-.59.24-1.02.81-1.22,1.41,0,.17.01.34.02.51.01.13.02.27.04.4,0,.06.01.13.02.19,0,.02,0,.04,0,.06.02.13.05.25.07.38.06.05.11.1.15.17.32.64.65,1.3.88,1.98.05.15.02.31-.05.44.09.17.17.34.26.5,0-.02.02-.05.02-.07.28-.75.6-1.5.96-2.23-.02-.19.03-.39.16-.55Z"/>
    <path class="cls-1" d="M22.07,1.63s0-.01,0-.02c0,.01,0,.01,0,.02,0,0,0,0,0,0Z"/>
    <path class="cls-1" d="M6.96,22.58s-.05-.07-.08-.11c-.06-.02-.13-.04-.2-.04-.17,0-.35,0-.52,0-.07-.11-.15-.21-.27-.29-.08-.05-.17-.1-.26-.15-.4-.16-.8-.34-1.19-.53-.19-.09-.28-.3-.3-.5-.8-.38-1.63-.69-2.54-.52-.75.14-1.32.73-1.54,1.45-.21.71,0,1.54.67,1.92.43.24.91.24,1.38.24.47,0,.94,0,1.41,0,1.05,0,2.1,0,3.15,0,.43,0,.8-.37.8-.8,0-.09-.02-.18-.05-.26-.16-.12-.32-.24-.47-.39Z"/>
    <path class="cls-1" d="M7.25,51.65c-.42.02-.75.23-1.09.45-.35.22-.7.44-1.05.66-.17.11-.31.28-.37.48-.05.19-.03.45.08.62.23.35.72.53,1.1.29.26-.17.53-.33.79-.5.11-.07.22-.14.32-.21.03.01.05.04.08.04.5.14,1.04-.1,1.2-.61.1-.33-.04-.68-.27-.91-.2-.2-.51-.31-.79-.29ZM7.84,53.19s0,0,0,0c0,0-.01.01-.02.02,0,0,.02-.02.03-.02Z"/>
    <path class="cls-1" d="M6.04,11.62c.12.08.26.14.4.19.08.03.16.05.24.06.25.04.43.04.67,0,.16-.03.31-.1.45-.18.1-.06.18-.14.25-.24.13-.04.25-.1.33-.19.14-.15.24-.35.23-.57,0-.21-.08-.43-.23-.57-.63-.56-1.36-.98-2.17-1.22-.17-.05-.36-.03-.52.04-.15.06-.31.18-.38.33-.15.31-.22.62-.17.96.04.26.12.52.27.74.17.26.38.46.63.63Z"/>
    <path class="cls-1" d="M4.93,57.43c-.36.05-.73.09-1.08.2-.38.12-.77.31-1.04.61-.12.13-.24.28-.32.45-.12.25-.18.45-.21.73-.02.18,0,.36.04.54.06.25.19.45.35.64.12.15.38.23.57.23.15,0,.31-.06.44-.15.08,0,.17-.02.25-.03.12-.02.24-.08.35-.14.11-.06.21-.14.3-.23.1-.09.17-.2.25-.3.04-.05.07-.11.09-.17.05-.12.11-.23.13-.36.02-.12.05-.25.03-.38,0-.02,0-.04,0-.06,0,0,0,0,0,0,0,0,0,0,0,0,0,0,0,0,0-.01.05-.01.11,0,.16-.04.1-.03.19-.09.26-.17.14-.14.24-.37.23-.57,0-.21-.08-.42-.23-.57-.14-.13-.36-.26-.57-.23Z"/>
  </g>
  <g>
    <path class="cls-2" d="M20.61,41.18v-16.75h5.38v16.75h-5.38Z"/>
    <path class="cls-2" d="M41.72,29.27c.75.83,1.12,2.02,1.12,3.58v8.33h-4.84v-7.74c0-.55-.14-1-.43-1.33-.28-.33-.69-.5-1.21-.5-.6,0-1.09.19-1.46.58-.37.39-.56.87-.56,1.44v7.55h-4.85v-12.86h3.97l.32,1.95c.5-.68,1.16-1.23,1.98-1.63s1.68-.61,2.59-.61c1.49,0,2.61.41,3.36,1.24Z"/>
    <path class="cls-2" d="M54.7,28.32h5.65l-4.75,5.19,4.87,7.67h-5.5l-2.7-4.41-1.68,1.63v2.78h-4.85v-17.68h4.85v9.74l4.12-4.92Z"/>
    <path class="cls-3" d="M74.91,41.18l-2.17-10.2h-.1l-2.17,10.2h-5.92l-3.92-16.75h5.6l1.92,9.5h.1l1.9-9.5h5.31l2.02,9.5h.1l1.8-9.5h5.36l-3.92,16.75h-5.92Z"/>
    <path class="cls-3" d="M87.31,26.81v-3.29h4.84v3.29h-4.84ZM87.31,41.18v-12.86h4.84v12.86h-4.84Z"/>
    <path class="cls-3" d="M101.14,37.89h5.67v3.29h-12.54v-1.58l5.41-7.99h-5.11v-3.29h12.03v1.51l-5.45,8.06Z"/>
    <path class="cls-3" d="M119.93,29.02c1.23.66,1.85,1.73,1.85,3.2v5.02c0,.28.07.5.2.68.13.18.32.27.58.27h.88v2.8s-.18.09-.38.16c-.2.07-.49.15-.86.22-.37.07-.8.11-1.29.11-.94,0-1.72-.14-2.33-.43-.61-.28-1.03-.68-1.25-1.18-.62.49-1.31.88-2.07,1.17-.76.29-1.66.44-2.68.44-3.02,0-4.53-1.2-4.53-3.6,0-1.25.34-2.2,1.01-2.86.67-.66,1.64-1.11,2.91-1.35,1.27-.24,2.92-.37,4.97-.37v-.63c0-.5-.17-.88-.52-1.14-.35-.26-.8-.39-1.35-.39-.5,0-.94.09-1.3.27-.37.18-.55.46-.55.85v.1h-4.77c-.02-.08-.02-.19-.02-.34,0-1.22.58-2.18,1.74-2.9,1.16-.71,2.82-1.07,4.98-1.07,1.96,0,3.56.33,4.8.99ZM113.88,36.03c-.66.3-.99.7-.99,1.21,0,.81.55,1.22,1.66,1.22.63,0,1.19-.17,1.67-.51s.72-.76.72-1.27v-1.1c-1.38,0-2.4.15-3.06.45Z"/>
    <path class="cls-3" d="M133.84,28.14c.29.09.44.14.44.16v4.07h-1.56c-1.01,0-1.73.26-2.18.78-.45.52-.67,1.29-.67,2.31v5.72h-4.85v-12.86h3.97l.32,1.95c.29-.75.75-1.31,1.39-1.69.63-.38,1.35-.57,2.14-.57.37,0,.71.05,1,.13Z"/>
    <path class="cls-3" d="M145.79,41.18l-.41-1.83c-.94,1.41-2.31,2.12-4.09,2.12s-3.08-.57-4.02-1.7c-.94-1.14-1.41-2.82-1.41-5.04s.47-3.88,1.41-5c.94-1.13,2.28-1.69,4.02-1.69,1.48,0,2.68.49,3.6,1.48v-5.99h4.84v17.65h-3.95ZM140.71,34.12v1.29c0,1.66.7,2.48,2.09,2.48.71,0,1.25-.25,1.61-.75.36-.5.54-1.16.54-1.97v-.8c0-.81-.18-1.47-.54-1.99-.36-.51-.89-.77-1.61-.77-1.4,0-2.09.84-2.09,2.51Z"/>
  </g>
  <g>
    <path class="cls-1" d="M79.96,20.39l-1.1-5.16h-.05l-1.1,5.16h-2.99l-1.98-8.46h2.83l.97,4.8h.05l.96-4.8h2.68l1.02,4.8h.05l.91-4.8h2.71l-1.98,8.46h-2.99Z"/>
    <path class="cls-1" d="M91.5,14.58c.63.56.94,1.41.94,2.56v.42h-4.87c0,.47.11.82.31,1.06s.54.36.99.36c.41,0,.71-.09.9-.26.19-.17.29-.4.29-.69h2.38c0,.79-.3,1.4-.9,1.84s-1.47.66-2.62.66c-1.21,0-2.14-.28-2.8-.84s-1-1.41-1-2.55.32-1.96.97-2.53c.65-.57,1.54-.86,2.68-.86s2.1.28,2.73.84ZM87.58,16.4h2.39c0-.34-.1-.6-.29-.8-.19-.2-.46-.3-.81-.3-.77,0-1.2.37-1.29,1.1Z"/>
    <path class="cls-1" d="M93.71,20.39v-8.92h2.45v8.92h-2.45Z"/>
    <path class="cls-1" d="M103.67,14.43c.66.45.99,1.15.99,2.09h-2.37c0-.74-.4-1.11-1.21-1.11s-1.21.46-1.21,1.39v.7c0,.92.42,1.38,1.26,1.38s1.25-.38,1.25-1.13h2.28c0,.94-.33,1.64-.99,2.1-.66.46-1.52.69-2.59.69-1.14,0-2.03-.29-2.68-.86-.65-.57-.97-1.42-.97-2.53s.32-1.96.97-2.53c.65-.57,1.54-.86,2.68-.86,1.07,0,1.93.23,2.59.68Z"/>
    <path class="cls-1" d="M111.97,14.62c.65.58.98,1.42.98,2.53s-.33,1.95-.98,2.53-1.55.87-2.69.87-2.03-.29-2.68-.86c-.65-.57-.97-1.42-.97-2.53s.32-1.96.97-2.53c.65-.57,1.54-.86,2.68-.86s2.04.29,2.69.87ZM108.08,16.8v.7c0,.92.4,1.38,1.21,1.38s1.22-.46,1.22-1.38v-.7c0-.93-.41-1.39-1.22-1.39s-1.21.46-1.21,1.39Z"/>
    <path class="cls-1" d="M124.41,14.38c.37.42.55,1.02.55,1.8v4.21h-2.45v-3.91c0-.28-.07-.5-.2-.67-.14-.17-.33-.25-.57-.25-.29,0-.52.1-.7.3s-.27.44-.27.73v3.81h-2.45v-3.91c0-.28-.07-.5-.2-.67-.14-.17-.33-.25-.57-.25-.29,0-.52.1-.7.3s-.27.44-.27.73v3.81h-2.45v-6.5h2.01l.16.97c.25-.34.57-.62.98-.82.41-.2.83-.3,1.29-.3.98,0,1.63.37,1.97,1.12.25-.34.58-.62.98-.82.4-.2.81-.3,1.25-.3.74,0,1.29.21,1.66.63Z"/>
    <path class="cls-1" d="M132.52,14.58c.63.56.94,1.41.94,2.56v.42h-4.87c0,.47.11.82.31,1.06s.54.36.99.36c.41,0,.71-.09.9-.26.19-.17.29-.4.29-.69h2.38c0,.79-.3,1.4-.9,1.84s-1.47.66-2.62.66c-1.21,0-2.14-.28-2.8-.84s-1-1.41-1-2.55.32-1.96.97-2.53c.65-.57,1.54-.86,2.68-.86s2.1.28,2.73.84ZM128.6,16.4h2.39c0-.34-.1-.6-.29-.8-.19-.2-.46-.3-.81-.3-.77,0-1.2.37-1.29,1.1Z"/>
    <path class="cls-1" d="M143.06,13.9v1.66h-1.38v2.47c0,.3.05.51.15.65.1.14.28.2.54.2h.69v1.44c-.2.07-.45.12-.76.16s-.58.06-.81.06c-.72,0-1.28-.13-1.67-.39-.39-.26-.58-.71-.58-1.34v-3.25h-.91v-1.66h1.01l.53-1.97h1.82v1.97h1.38Z"/>
    <path class="cls-1" d="M150.24,14.62c.65.58.98,1.42.98,2.53s-.33,1.95-.98,2.53-1.55.87-2.69.87-2.03-.29-2.68-.86c-.65-.57-.97-1.42-.97-2.53s.32-1.96.97-2.53c.65-.57,1.54-.86,2.68-.86s2.04.29,2.69.87ZM146.35,16.8v.7c0,.92.4,1.38,1.21,1.38s1.22-.46,1.22-1.38v-.7c0-.93-.41-1.39-1.22-1.39s-1.21.46-1.21,1.39Z"/>
  </g>
</svg>