<?xml version="1.0" encoding="UTF-8"?>
<svg id="Layer_1" data-name="Layer 1" xmlns="http://www.w3.org/2000/svg" viewBox="0 0 181.59 81.25">
  <defs>
    <style>
      .cls-1 {
        fill: #0e1c1e;
      }

      .cls-1, .cls-2, .cls-3 {
        stroke-width: 0px;
      }

      .cls-2 {
        fill: #54c6d7;
      }

      .cls-3 {
        fill: #fff;
      }
    </style>
  </defs>
  <g>
    <path class="cls-3" d="M81.42,26.87c-.63-.06-1.23-.3-1.75-.7-.56-.11-1.12-.09-1.69.11-.81.28-1.57.89-2.25,1.44-1.38,1.13-2.96,2.64-4.91,2.08-.37-.11-.69-.56-.54-.96.56-1.48,1.67-2.61,2.71-3.78.5-.56,1.11-1.24,1.46-1.98,0,0-.02-.01-.03-.02-.62-.63-.9-1.53-.88-2.41.02-.62.17-1.52.77-1.86-.1-.19-.29-.35-.58-.41-2.93-.54-2.26-4.14-1.56-6.23.26-.79-.73-1.56-1.43-1.1-1.4.92-2.87,1.85-4.4,2.6-1.1-.48-1.88-1.54-2.08-2.87-.1-.65-.93-.84-1.43-.58-.09.05-.18.09-.27.13-.45-.44-.95-.84-1.5-1.19-.12-1.26-.13-2.53,0-3.82.12-1.13-1.6-1.26-1.91-.26-.3.97-.69,1.88-1.17,2.74-.18-.05-.35-.1-.53-.14-.14-.33-.27-.65-.41-.98-.34-.81-1.24-.93-1.78-.23-.65.85-1.53,1.43-2.51,1.76-1.36-.26-2.73-.31-4.13-.21-.09-.03-.18-.06-.26-.08-1-.58-1.74-1.5-2.76-2.14-2.05-1.29-4.25-.09-5.5,1.77-.15.23-.28.46-.38.68-.18-.11-.36-.23-.55-.33-.03-.02-.07-.02-.1-.04-.41-.68-1.04-1.26-1.64-1.72-.41-.31-1-.68-1.61-.86-.07.67-.25,1.33-.47,1.94-.68,1.88-1.78,3.74-3.27,5.09-1.3,1.17-3.16,1.99-4.78.9,0,0,0-.01-.01-.01-.07-.02-.15-.03-.22-.06-.52-.2-.9-.55-1.2-.97,0,0-.01,0-.02,0-.02-.05-.06-.09-.09-.13-.04-.07-.09-.13-.13-.21-.27-.3-.71-.47-1.18-.27-2.49,1.08-4.95,2.1-6.81,4.04-.72-.61-1.44-1.22-2.16-1.82-.66-.55-2.01-.05-1.62.95.26.66.37,1.35.34,2.05-.04.98-.09,1.68-1.09,1-.67-.45-1.74.31-1.43,1.1.84,2.1,1.67,4.21,2.51,6.31-.49-.08-.99-.16-1.49-.24-.83-.14-1.51.63-1.1,1.43.19.36.38.72.56,1.08.03.02.05.02.08.04.69.59,1.56,1.04,2.45,1.46.74-.26,1.52-.4,2.3-.44.01,0,.03,0,.04-.01.15-.15.35-.24.56-.26.26-.02.52,0,.78.03.03,0,.06,0,.08.01.42.07.83.21,1.17.46,1.05.77,1.29,2.08,1.09,3.3-.09.56-.31,1.12-.61,1.6-.08.14-.18.26-.29.36-.02.24-.16.45-.36.58-.18.28-.51.45-.86.35-2.79-.81-5.37-2.4-8.3-2.32-.12.17-.21.37-.21.56.02,1.91.39,3.73.85,5.53-.51.39-1.04.75-1.61,1.04-1.75.91-3.7,1.31-5.67,1.18-.75-.05-1.08.75-.88,1.34,0,0,.01,0,.02,0,1.3-.04,2.66.06,3.85.64,1.63.81,2.13,2.52,1.81,4.21,0,0,0,0,0,0,.04.01.07.03.11.04-.3,1.13-.65,2.25-1.09,3.34-.39.95.81,1.45,1.51,1,.18-.19.34-.39.49-.59.13-.21.32-.49.53-.8.75-1.25,1.32-2.62,2.35-3.69.47-.49,1.33-.12,1.33.55,0,2.98.11,6.31-1.15,8.99,0,.01,0,.03,0,.04-.03.02-.04.06-.07.08-.3.62-.67,1.21-1.14,1.75-.03.08-.08.15-.11.24-.19.6.33,1.24.94,1.23,3.8-.05,6.4,2.76,5.76,6.58-.12.72.42,1.29,1.08,1.2-.26.72-.51,1.44-.7,2.17-.32,1.19,0,2.85,1.51,2.87,1.19.02,1.47-.94,1.89-1.78.45-1.5,1.6-2.78,2.78-3.76,1.51-1.26,3.31-2.35,5.21-2.88.12-.04.22-.04.32-.02.01,0,.02,0,.04,0,.08.02.15.04.22.09.02.01.03.02.05.03.06.04.11.1.16.16,0,.01.02.02.03.04.15.23.2.53.08.79-.02.05-.05.08-.08.13-.02.03-.03.06-.06.08-.81.84-1.12,1.98-1.06,3.12.03.04.05.09.08.12.15.15.36.23.53.25.75.1,1.54-.19,2.22-.53.71-.35,1.42.35,1.06,1.06-.36.73-.72,1.53-.95,2.35.4.23.75.51,1.11.78,0,0,0,0,0,0,.59-.4,1.34-.8,2.08-.73.6.06,1.12.36,1.43.9.19.34.27.73.31,1.12.19.13.32.34.32.61,0,.68-.08,1.37-.25,2.04.26-.03.51-.16.67-.45.63-1.22,1.26-2.62,1.46-4.01.27-.15.51-.34.77-.5.04-.04.06-.09.11-.13,1.12-1.09,2.96-1.51,4.46-1.12.11.03.19.08.29.11.2-.06.4-.12.6-.18.01.16.04.31.06.47,1.3.76,1.93,2.23,2.11,3.75.62.25,1.37.17,2.25-.36-.13-.25-.22-.53-.19-.8.03-.28.1-.49.22-.74.1-.22.26-.41.41-.59.12-.16.36-.22.55-.23.15,0,.27.05.39.12-.03-.38-.03-.76.06-1.15.07-.34.2-.66.37-.96,0-.03,0-.06,0-.09,0-.02,0-.04.01-.07.02-.05.03-.1.05-.15,0-.02.01-.03.03-.06.08-.14.16-.27.25-.4,0,0,0,0,0,0,0,0,.02-.02.04-.04.05-.06.1-.12.16-.18.03-.04.07-.07.1-.1.46-.87,1.37-1.52,2.3-1.76,1.05-.26,2.13-.06,3.11.36.62.26,1.2.61,1.76,1,.04-.02.08-.03.12-.05.28.11.56.29.8.55.28.3.61.33.91.24.1.25.29.46.52.56.82-.78,1.7-1.48,2.5-2.27.45-.45,1.08-.18,1.3.34.62,1.5,1.04,3.07,1.35,4.67.14.03.27.04.41,0,.41.72.82,1.44,1.23,2.15.39.68,1.63.61,1.78-.23.32-1.8,1.31-3.38,2.97-4.24,1.09-.56,2.68-.42,3.5-1.43.73-.91.34-1.82-.08-2.76-.31-.69-.51-1.38-.66-2.07,0-.02,0-.05.01-.07-.21-.32-.44-.62-.73-.91-.21-.21-.43-.39-.65-.59-.03-.02-.06-.03-.08-.05-.37-.16-.74-.31-1.14-.41-.18-.05-.3-.13-.39-.24-.18.04-.37.03-.53-.09-1.87-1.31-4.05-2.08-5.82-3.57-.39-.33-.26-.8.04-1.08,0-.12.03-.24.08-.35.05-.1.1-.21.15-.31.07-.43.25-.84.51-1.22,1.02-1.43,2.85-1.45,4.16-.53.93.15,1.83.68,2.59,1.38.7-.38,1.41-.72,2.12-1.08.86-1.22,1.85-2.34,3.06-3.26.46-.35.72-1.07.2-1.53-.99-.86-1.55-1.86-2.19-2.89-.05-.22-.08-.45-.11-.67.79-.95,1.57-1.9,2.36-2.85.8-.96-.41-2.19-1.37-1.37-.29.24-.58.28-.86.2.34-2.01,1.03-4.02,1.7-6.01.22-.65-.35-1.18-.94-1.23-.09,0-.18-.03-.27-.05.39-.59.75-1.19,1.11-1.8.26-1.77,1.54-3.51,2.94-4.76.03-.07.07-.15.1-.22-.39-.26-.71-.58-1-.93ZM16.03,17.4c.03-.19.05-.37.06-.56.11.09.21.18.32.27-.13.1-.26.2-.38.3Z"/>
    <path class="cls-3" d="M68.75,22.5c-.04-.07-.08-.15-.12-.22.05.07.09.15.13.22,0,0,0,0,0,0Z"/>
    <path class="cls-3" d="M71.06,19.32s0-.07,0-.11c.05.04.09.09.14.13-.05,0-.1-.02-.14-.02Z"/>
    <path class="cls-3" d="M16.12,20.57c.03-.11.06-.22.11-.33-.03.11-.06.22-.11.33Z"/>
    <path class="cls-3" d="M10.05,44.38s.09,0,.13,0c-.02.03-.04.07-.06.1-.18-.03-.37.01-.57.13-.01-.03-.03-.06-.04-.09.18-.04.36-.09.53-.13Z"/>
    <path class="cls-3" d="M76.91,49.94s.03.05.05.08c-.02,0-.03.02-.05.03,0-.04,0-.07,0-.11Z"/>
    <path class="cls-3" d="M56.09,9.36s-.04-.02-.07-.04c.02,0,.04,0,.05,0,0,.01,0,.02.01.03Z"/>
    <path class="cls-3" d="M20.03,64.48c-.03.08-.06.15-.09.23,0-.15-.02-.3-.03-.45.04.08.08.15.12.23Z"/>
    <path class="cls-3" d="M69.35,71.02c.09,0,.18-.03.27-.07-.05.09-.11.18-.15.27-.04-.07-.08-.13-.12-.2Z"/>
    <path class="cls-3" d="M12.35,34.25c-.07.15-.14.3-.19.46-.02-.16-.04-.31-.05-.47.08,0,.16.01.24.01Z"/>
    <path class="cls-3" d="M20.67,68.46c.03-.08.06-.16.09-.25.04-.11.08-.22.12-.32.06.07.13.13.2.19-.14.12-.28.24-.4.38Z"/>
    <path class="cls-3" d="M48.35,72.13c.07.01.14.01.21.01,0,.03.02.05.03.08-.09-.01-.16-.04-.24-.09Z"/>
    <path class="cls-3" d="M75.05,66.95c-.05-.05-.11-.1-.16-.15.1-.16.2-.32.29-.48.05.3.02.49-.13.63Z"/>
    <path class="cls-3" d="M57.45,74.2c-.27-.43-.88-.64-1.33-.35-.13.08-.23.2-.31.32-.35.07-.64.31-.75.67-.6,2.14-.02,4.48,1.46,6.12.23.25.62.34.95.25.35-.1.56-.35.68-.68.76-2.06.49-4.49-.7-6.34Z"/>
    <path class="cls-3" d="M82.65,57.72c.43-.08.87-.17,1.3-.29.27-.09.51-.21.77-.32.04-.03.09-.05.13-.09.91-.85,1.35-2.41.58-3.49-.32-.45-.83-.6-1.33-.35-1.87.94-3.45,2.37-4.64,4.08-.22.31-.16.77.07,1.08,1-.35,2.1-.44,3.13-.62Z"/>
    <path class="cls-3" d="M83.61,55.51s0,0,0,0c0-.02.02-.03.03-.05-.01.02-.02.03-.03.04Z"/>
    <path class="cls-3" d="M83.43,55.68s-.02.02-.03.03h0s.02-.02.03-.03Z"/>
    <path class="cls-3" d="M68.7,1.44c-.34.19-.65.42-.95.68-.03.05-.06.11-.11.16-1.7,1.73-2.19,4.3-1.53,6.59,0,0,.02-.02.03-.02.86-.8,1.72-1.62,2.67-2.31.19-.14.39-.27.6-.38.55-1.21.83-2.53.76-3.87-.04-.74-.8-1.21-1.46-.84Z"/>
    <path class="cls-3" d="M82.22,18.68c-.07-.01-.14-.02-.21-.03-.06.03-.12.06-.19.07-.7.12-1.4.23-2.1.38-.07.03-.15.06-.08.03-.07.03-.15.07-.22.1-.15.07-.29.15-.43.24-.26.16-.58.37-.77.52-.17.13-.37.2-.56.2.32.52.51,1.1.56,1.71,1.63,0,3.16-.58,4.42-1.6.56-.45.25-1.48-.43-1.62Z"/>
    <path class="cls-3" d="M79.18,20.79s0,0,0,0c0,0,0,0,0,.01,0,0,0,0,0,0Z"/>
    <polygon class="cls-3" points="79.18 20.77 79.18 20.76 79.19 20.76 79.19 20.77 79.18 20.77"/>
    <path class="cls-3" d="M79.21,20.75s0,0,0-.01c0,0,0,0,0,0,0,0,0,0,0,0,0,0,0,.01-.02.02Z"/>
    <path class="cls-3" d="M27.65,3.88s.02-.03.03-.04c0,0,0,0,0-.01.04-.06.08-.12.12-.18.05-.09.09-.17.14-.26.01-.03.05-.1.06-.13.02-.07.05-.14.06-.2.03-.12.06-.24.08-.37,0-.01,0,0,0-.01,0-.02,0-.03,0-.05,0-.05,0-.11.01-.16,0-.14,0-.29,0-.43,0-.05,0-.1-.01-.15,0-.02,0-.04-.01-.07-.02-.13-.06-.26-.09-.39-.02-.06-.04-.12-.06-.18,0-.02-.01-.04-.02-.06,0,0,0,0,0,0-.05-.11-.11-.22-.17-.32-.03-.05-.07-.11-.11-.16-.02-.02-.03-.04-.05-.06-.08-.09-.17-.17-.26-.25,0,0,0,0-.01-.01-.01,0-.02-.02-.04-.03-.04-.03-.09-.06-.13-.08-.06-.04-.12-.07-.19-.1-.01,0,0,0-.01,0-.02,0-.03-.01-.05-.02-.13-.04-.25-.07-.38-.1-.02,0-.02,0-.03,0-.02,0-.04,0-.06,0-.08,0-.17,0-.25,0-.07,0-.13-.02-.19-.04-.72.29-1.24.98-1.48,1.72,0,.21.01.42.03.62.01.16.03.33.05.49,0,.08.02.16.03.24,0,.02,0,.04,0,.07.02.15.05.3.08.46.07.06.14.12.18.21.39.78.78,1.57,1.06,2.4.06.19.03.37-.06.53.1.2.21.41.31.61.01-.03.02-.06.03-.09.34-.92.73-1.82,1.17-2.7-.03-.23.04-.47.2-.67Z"/>
    <path class="cls-3" d="M26.77,1.98s0-.01,0-.03c0,.01,0,.02,0,.03,0,0,0,0,0,0Z"/>
    <path class="cls-3" d="M8.44,27.39s-.06-.09-.09-.13c-.08-.02-.15-.05-.24-.05-.21,0-.42,0-.63,0-.08-.13-.18-.26-.32-.35-.1-.07-.21-.12-.32-.18-.49-.2-.97-.41-1.44-.64-.23-.11-.35-.36-.36-.61-.97-.46-1.98-.84-3.07-.64-.91.17-1.6.89-1.87,1.76-.26.86,0,1.87.82,2.33.52.29,1.1.29,1.67.29.57,0,1.14,0,1.71,0,1.27,0,2.54,0,3.82,0,.52,0,.97-.45.97-.97,0-.11-.03-.22-.07-.32-.2-.14-.39-.29-.58-.47Z"/>
    <path class="cls-3" d="M8.79,62.64c-.51.03-.91.28-1.33.54-.42.27-.85.53-1.27.8-.21.13-.38.34-.45.58-.06.23-.04.54.1.75.28.43.87.64,1.33.35.32-.2.64-.4.96-.61.13-.08.26-.17.39-.26.03.01.06.04.09.05.6.16,1.26-.13,1.45-.74.12-.4-.05-.82-.33-1.11-.24-.25-.62-.37-.95-.36ZM9.51,64.51s0,0,0,0c0,0-.02.01-.03.02.01,0,.02-.02.03-.03Z"/>
    <path class="cls-3" d="M7.33,14.09c.15.1.32.17.49.23.1.04.19.06.3.08.3.04.52.05.82,0,.19-.04.38-.12.54-.22.12-.07.22-.17.3-.29.15-.05.3-.12.4-.23.17-.19.3-.43.28-.69-.01-.25-.09-.52-.28-.69-.76-.68-1.65-1.18-2.63-1.47-.21-.06-.44-.03-.63.05-.18.08-.37.21-.46.4-.19.37-.27.75-.21,1.17.04.32.14.63.32.9.21.31.46.56.77.77Z"/>
    <path class="cls-3" d="M5.98,69.64c-.44.06-.89.1-1.31.24-.46.15-.93.38-1.26.74-.15.16-.29.34-.39.54-.15.3-.21.55-.26.88-.03.22,0,.44.05.65.07.3.23.54.43.78.15.18.46.28.69.28.18,0,.38-.08.54-.19.1,0,.21-.02.31-.04.15-.03.29-.1.42-.17.13-.07.26-.17.37-.27.12-.1.21-.24.3-.37.05-.06.08-.13.11-.2.06-.14.13-.28.16-.44.03-.15.06-.31.04-.46,0-.02,0-.05-.01-.07,0,0,0,0,0,0,0,0,0,0,0,0,0,0,0-.01,0-.02.06-.01.13-.01.19-.04.12-.04.22-.11.31-.2.17-.17.3-.44.28-.69-.01-.25-.09-.51-.28-.69-.18-.16-.44-.32-.69-.28Z"/>
  </g>
  <g>
    <path class="cls-1" d="M24.99,49.94v-20.32h6.53v20.32h-6.53Z"/>
    <path class="cls-1" d="M50.59,35.5c.91,1,1.36,2.45,1.36,4.34v10.1h-5.88v-9.39c0-.67-.17-1.21-.52-1.61-.34-.4-.83-.6-1.46-.6-.73,0-1.32.24-1.77.71-.45.47-.68,1.05-.68,1.74v9.15h-5.88v-15.59h4.81l.38,2.36c.61-.83,1.41-1.49,2.41-1.98.99-.49,2.04-.74,3.14-.74,1.81,0,3.17.5,4.08,1.51Z"/>
    <path class="cls-1" d="M66.33,34.35h6.85l-5.76,6.29,5.91,9.3h-6.67l-3.28-5.34-2.04,1.98v3.37h-5.88v-21.44h5.88v11.81l4.99-5.97Z"/>
    <path class="cls-2" d="M90.84,49.94l-2.63-12.37h-.12l-2.63,12.37h-7.18l-4.76-20.32h6.79l2.33,11.52h.12l2.3-11.52h6.44l2.45,11.52h.12l2.18-11.52h6.5l-4.76,20.32h-7.18Z"/>
    <path class="cls-2" d="M105.88,32.52v-3.99h5.88v3.99h-5.88ZM105.88,49.94v-15.59h5.88v15.59h-5.88Z"/>
    <path class="cls-2" d="M122.65,45.95h6.88v3.99h-15.21v-1.92l6.56-9.69h-6.2v-3.99h14.59v1.83l-6.61,9.77Z"/>
    <path class="cls-2" d="M145.45,35.19c1.5.8,2.24,2.09,2.24,3.88v6.08c0,.34.08.61.24.83.16.22.39.32.71.32h1.06v3.4c-.06.04-.21.1-.46.19-.25.09-.59.18-1.05.27-.45.09-.97.13-1.57.13-1.14,0-2.08-.17-2.82-.52-.74-.34-1.24-.82-1.52-1.43-.75.59-1.58,1.06-2.51,1.42-.93.35-2.01.53-3.25.53-3.66,0-5.49-1.46-5.49-4.37,0-1.52.41-2.67,1.22-3.47.82-.8,1.99-1.34,3.53-1.64s3.54-.44,6.02-.44v-.77c0-.61-.21-1.07-.63-1.39s-.97-.47-1.64-.47c-.61,0-1.14.11-1.58.32-.44.22-.66.56-.66,1.03v.12h-5.79c-.02-.1-.03-.24-.03-.41,0-1.48.7-2.65,2.11-3.51,1.41-.87,3.42-1.3,6.04-1.3,2.38,0,4.32.4,5.82,1.2ZM138.11,43.69c-.8.36-1.2.85-1.2,1.46,0,.99.67,1.48,2.01,1.48.77,0,1.44-.21,2.02-.62.58-.41.87-.93.87-1.54v-1.33c-1.67,0-2.91.18-3.71.55Z"/>
    <path class="cls-2" d="M162.31,34.12c.36.11.53.17.53.19v4.93h-1.89c-1.22,0-2.1.31-2.64.94-.54.63-.81,1.56-.81,2.81v6.94h-5.88v-15.59h4.81l.38,2.36c.35-.9.92-1.59,1.68-2.05.77-.46,1.63-.69,2.6-.69.45,0,.86.05,1.21.16Z"/>
    <path class="cls-2" d="M176.81,49.94l-.5-2.21c-1.14,1.71-2.8,2.57-4.96,2.57s-3.73-.69-4.87-2.07c-1.14-1.38-1.71-3.42-1.71-6.11s.57-4.7,1.71-6.07c1.14-1.37,2.76-2.05,4.87-2.05,1.79,0,3.25.6,4.37,1.8v-7.26h5.88v21.41h-4.78ZM170.63,41.37v1.56c0,2.01.85,3.01,2.54,3.01.87,0,1.52-.31,1.95-.92.43-.61.65-1.41.65-2.39v-.97c0-.98-.22-1.79-.65-2.41-.43-.62-1.08-.93-1.95-.93-1.69,0-2.54,1.01-2.54,3.04Z"/>
  </g>
</svg>